<svg xmlns="http://www.w3.org/2000/svg" xmlns:xlink="http://www.w3.org/1999/xlink"><defs><symbol viewBox="0 0 512 512" id="arrow"><path d="M27.7 111.1C17.4 113.5 8 121.4 3.3 131.5 1 136.6.5 138.8.6 146c0 16-9.6 5.2 119.2 134.2 77.7 77.8 116 115.5 119.1 117.2 7.3 3.9 15.8 5.3 23.4 3.7 3.4-.7 8.3-2.4 10.8-3.7 3.1-1.7 41.4-39.4 119.1-117.2C521 151.2 511.4 162 511.4 146c0-7.2-.4-9.4-2.8-14.7-8.4-18.4-30.8-26.2-49.1-17.1-2.6 1.3-38.8 36.8-103.7 101.6L256 315.5l-99.8-99.7C91 150.7 55.1 115.5 52.5 114.2c-7.6-3.7-17-4.9-24.8-3.1z" /></symbol><symbol viewBox="0 0 512 512" id="camera"><path d="M437.333 117.333h-64a10.64 10.64 0 0 1-10.112-7.296l-6.741-20.224a53.268 53.268 0 0 0-50.603-36.48h-99.755a53.23 53.23 0 0 0-50.581 36.459l-6.741 20.245a10.687 10.687 0 0 1-10.133 7.296h-64C33.493 117.333 0 150.827 0 192v192c0 41.173 33.493 74.667 74.667 74.667h362.667C478.507 458.667 512 425.173 512 384V192c0-41.173-33.493-74.667-74.667-74.667zM490.667 384c0 29.397-23.936 53.333-53.333 53.333H74.667c-29.397 0-53.333-23.936-53.333-53.333V192c0-29.397 23.936-53.333 53.333-53.333h64a31.982 31.982 0 0 0 30.357-21.867l6.763-20.267a31.937 31.937 0 0 1 30.336-21.867h99.755a31.973 31.973 0 0 1 30.357 21.888l6.741 20.245a31.983 31.983 0 0 0 30.357 21.867h64c29.397 0 53.333 23.936 53.333 53.333V384z" /><path d="M256 160c-70.592 0-128 57.408-128 128s57.408 128 128 128 128-57.408 128-128-57.408-128-128-128zm0 234.667c-58.816 0-106.667-47.851-106.667-106.667S197.184 181.333 256 181.333 362.667 229.184 362.667 288 314.816 394.667 256 394.667z" /><path d="M256 202.667c-47.061 0-85.333 38.272-85.333 85.333 0 5.888 4.779 10.667 10.667 10.667S192 293.888 192 288c0-35.285 28.715-64 64-64 5.888 0 10.667-4.779 10.667-10.667s-4.779-10.666-10.667-10.666z" /></symbol><symbol viewBox="0 0 512 512" id="contacts"><path d="M116.9 17.4C105.6 21.8 88.2 36.8 67.7 60c-20.6 23.2-41 51.4-48.4 66.9l-3.7 7.5 1.2 10.1C26 224 92.2 327.9 181 402.1c62.7 52.3 130.3 86.2 186 93 9.2 1.2 9.7 1.1 15.5-1.2 23.6-9.7 79.4-54.5 100.5-80.8 9.3-11.6 12.5-18.1 12.5-25.1-.1-6.9-3.7-15.1-9.4-21.3-8.4-9.1-60.7-42.6-88.6-56.7-18.6-9.4-28.5-13-35.9-13-11.6 0-18 4.6-36.1 25.7-7 8.1-13.3 14.9-14 15.1-2.1.5-19.3-6.5-31.3-12.9-40.5-21.2-72-52.7-93.1-92.9-6.3-12.2-13.4-29.4-12.9-31.5.2-.6 6.9-6.9 14.9-13.8 21.3-18.3 25.8-24.6 25.9-36 0-15.1-16.7-48-49.6-97.3-8.7-13-17.3-24.9-19.9-27.3-8.6-7.9-20.9-11.7-28.6-8.7zm14.9 42.8c16 22.6 33.9 52.6 45.4 76.3 3.2 6.6 5.8 12.3 5.8 12.7 0 .3-5.5 5.3-12.2 11-17.1 14.3-27.4 24.4-29.4 28.6-2.3 4.9-1.5 11.3 3.7 26.7 10.8 32.5 35 70.1 61.5 95.5 28.7 27.5 64.4 48.8 97.8 58.4 9.5 2.8 14 3.2 18.1 1.6 4-1.5 12.5-10.1 26.7-26.7 7.1-8.4 13.2-15.3 13.6-15.3.4 0 6.1 2.6 12.7 5.8 23.8 11.6 53.6 29.3 76 45.2l11.5 8.2-8.1 8.9c-17.6 19.3-53.1 49-75.1 62.8l-6.7 4.2-6.8-1.2c-88.2-14.7-197.7-95.9-264.8-196.4-28.4-42.6-46.2-83.6-52.4-120.8l-1.2-6.8 3.5-5.7c12.2-20.1 43.3-57.4 63.1-75.8 4.9-4.6 9.1-8.3 9.2-8.4.1 0 3.7 5.1 8.1 11.2zM265.5 33.4c-9.4 4.1-12.4 16.8-5.8 24.7 3.6 4.2 8 5.9 15.5 5.9 29.9 0 65.7 11.1 92.5 28.5 24.7 16 46.3 39.8 59.7 65.6 12.9 24.6 18.4 45.2 20.4 75.7.9 13.1 1.7 15.3 7.6 19.6 3.9 2.9 13.3 2.9 17.2 0 7.3-5.4 8.4-10.5 6.4-31.5-6.7-73.1-50-136.1-115.5-168.4-21.7-10.7-43.5-17.1-68.3-20-15.5-1.8-25.7-1.9-29.7-.1z" /><path d="M265.5 113.3c-9.7 4.5-12.4 17.2-5.4 25.2 3.7 4.1 6.8 5.2 18.4 5.9 23.8 1.5 44.5 11.2 62 29 17 17.4 25.4 36.3 27.4 62.2.8 11.2 1.9 13.6 7.5 17.8 3.9 2.9 13.3 2.9 17.2 0 7.5-5.5 8.7-12.3 5.9-31.5-4-27.9-16-51.7-36.4-72-23.1-23.2-51.1-35.8-82.6-37.4-8.3-.4-11.8-.2-14 .8z" /></symbol><symbol viewBox="0 0 512 512" id="cross"><path d="M237.5 22.1c-78.2 6.4-147.8 51-186.4 119.6-32.4 57.6-38.5 128.1-16.7 191.2 11.6 33.3 28.9 61.1 54 86.9 70.5 72.3 179.2 91.3 270.1 47.2 49.1-23.9 89.8-65.9 111.5-115 35.8-80.9 24.2-172.4-30.6-242.2-12.9-16.4-38.5-39.6-56.4-51-19.9-12.7-44.6-23.6-66.5-29.3-16.6-4.4-27.7-6.2-44.5-7.5-15-1.1-19.9-1.1-34.5.1zm49 44.3c20.2 3.6 34.7 8.3 52.4 16.7 74 35.4 117.3 113.8 107.6 194.9-7.9 66.5-48.5 123-109 151.6-52.2 24.6-112 24.4-164.4-.7-39.9-19.1-70.9-50.2-90-90-8.5-17.7-12.9-31.8-16.8-52.9-2.4-13.3-2.4-46.7 0-60 3.9-21.1 8.3-35.2 16.8-52.9 28.6-59.8 84.7-99.7 151.9-108 10.7-1.4 40.8-.6 51.5 1.3z" /><path d="M173.2 160.1c-1.9.6-5.3 3-7.7 5.3-6.7 6.7-8.2 15.1-4.4 23.6 1.5 3.3 10.3 12.8 33.2 35.7l31.1 31.3-31.5 31.7c-35 35.2-35.8 36.2-34.6 46.5 1.6 13.6 15.6 22.1 28.4 17.3 4-1.5 10-6.9 36.6-33.4l31.7-31.5 31.8 31.5c26.5 26.5 32.5 31.9 36.5 33.4 12.8 4.8 26.8-3.7 28.4-17.3 1.2-10.3.4-11.3-34.6-46.5L286.6 256l31.1-31.3c17.1-17.1 31.9-32.8 32.9-34.7 2.3-4.4 2.4-14.3.1-18.6-2.4-4.6-9.1-10.2-13.9-11.4-4.8-1.3-10.5-.7-15.2 1.6-1.7.9-17.2 15.6-34.3 32.7L256 225.5l-31.2-31.2c-23-22.9-32.5-31.7-35.8-33.2-4.8-2.2-10.4-2.5-15.8-1z" /></symbol><symbol viewBox="0 0 512 512" id="exit"><path d="M60.5-.5h196c18.025 5.052 23.525 16.385 16.5 34-2.596 3.89-6.096 6.723-10.5 8.5a10611.637 10611.637 0 0 1-204 2c-8.275 2.607-13.441 8.107-15.5 16.5-.667 130-.667 260 0 390 2.059 8.393 7.225 13.893 15.5 16.5 68.044.013 136.044.68 204 2 13.58 7.465 17.08 18.299 10.5 32.5-4.107 5.797-9.607 9.13-16.5 10h-196c-32.853-3.853-53.186-21.853-61-54v-404c7.814-32.147 28.147-50.147 61-54Z" style="opacity:.976" /><path d="M511.5 249.5v12l-3.5 7A11940.786 11940.786 0 0 0 377.5 398c-12.319 9.334-23.819 8.5-34.5-2.5-4.667-8.333-4.667-16.667 0-25a6110.393 6110.393 0 0 1 93.5-92.5l-248-1c-14.985-3.118-21.152-12.285-18.5-27.5 2.812-9.143 8.978-14.31 18.5-15.5l248-1a6110.393 6110.393 0 0 1-93.5-92.5c-6.036-11.674-4.202-21.841 5.5-30.5 10.346-5.363 20.012-4.363 29 3A11940.786 11940.786 0 0 0 508 242.5l3.5 7Z" style="opacity:.97" /></symbol><symbol fill="currentColor" class="bi bi-filetype-png" viewBox="0 0 16 16" id="exportpng"><path fill-rule="evenodd" d="M14 4.5V14a2 2 0 0 1-2 2v-1a1 1 0 0 0 1-1V4.5h-2A1.5 1.5 0 0 1 9.5 3V1H4a1 1 0 0 0-1 1v9H2V2a2 2 0 0 1 2-2h5.5L14 4.5Zm-3.76 8.132c.076.153.123.317.14.492h-.776a.797.797 0 0 0-.097-.249.689.689 0 0 0-.17-.19.707.707 0 0 0-.237-.126.96.96 0 0 0-.299-.044c-.285 0-.506.1-.665.302-.156.201-.234.484-.234.85v.498c0 .234.032.439.097.615a.881.881 0 0 0 .304.413.87.87 0 0 0 .519.146.967.967 0 0 0 .457-.096.67.67 0 0 0 .272-.264c.06-.11.091-.23.091-.363v-.255H8.82v-.59h1.576v.798c0 .193-.032.377-.097.55a1.29 1.29 0 0 1-.293.458 1.37 1.37 0 0 1-.495.313c-.197.074-.43.111-.697.111a1.98 1.98 0 0 1-.753-.132 1.447 1.447 0 0 1-.533-.377 1.58 1.58 0 0 1-.32-.58 2.482 2.482 0 0 1-.105-.745v-.506c0-.362.067-.678.2-.95.134-.271.328-.482.582-.633.256-.152.565-.228.926-.228.238 0 .45.033.636.1.187.066.348.158.48.275.133.117.238.253.314.407Zm-8.64-.706H0v4h.791v-1.343h.803c.287 0 .531-.057.732-.172.203-.118.358-.276.463-.475a1.42 1.42 0 0 0 .161-.677c0-.25-.053-.475-.158-.677a1.176 1.176 0 0 0-.46-.477c-.2-.12-.443-.179-.732-.179Zm.545 1.333a.795.795 0 0 1-.085.381.574.574 0 0 1-.238.24.794.794 0 0 1-.375.082H.788v-1.406h.66c.218 0 .389.06.512.182.123.12.185.295.185.521Zm1.964 2.666V13.25h.032l1.761 2.675h.656v-3.999h-.75v2.66h-.032l-1.752-2.66h-.662v4h.747Z" /></symbol><symbol fill="currentColor" class="bi bi-filetype-svg" viewBox="0 0 16 16" id="exportsvg"><path fill-rule="evenodd" d="M14 4.5V14a2 2 0 0 1-2 2v-1a1 1 0 0 0 1-1V4.5h-2A1.5 1.5 0 0 1 9.5 3V1H4a1 1 0 0 0-1 1v9H2V2a2 2 0 0 1 2-2h5.5L14 4.5ZM0 14.841a1.13 1.13 0 0 0 .401.823c.13.108.288.192.478.252.19.061.411.091.665.091.338 0 .624-.053.858-.158.237-.105.416-.252.54-.44a1.17 1.17 0 0 0 .187-.656c0-.224-.045-.41-.135-.56a1 1 0 0 0-.375-.357 2.027 2.027 0 0 0-.565-.21l-.621-.144a.97.97 0 0 1-.405-.176.37.37 0 0 1-.143-.299c0-.156.061-.284.184-.384.125-.101.296-.152.513-.152.143 0 .266.023.37.068a.625.625 0 0 1 .245.181.56.56 0 0 1 .12.258h.75a1.092 1.092 0 0 0-.199-.566 1.21 1.21 0 0 0-.5-.41 1.813 1.813 0 0 0-.78-.152c-.293 0-.552.05-.776.15-.225.099-.4.24-.528.421-.127.182-.19.395-.19.639 0 .201.04.376.123.524.082.149.199.27.351.367.153.095.332.167.54.213l.618.144c.207.049.36.113.462.193a.387.387 0 0 1 .153.326.512.512 0 0 1-.085.29.559.559 0 0 1-.256.193c-.111.047-.249.07-.413.07-.117 0-.224-.013-.32-.04a.837.837 0 0 1-.248-.115.578.578 0 0 1-.255-.384H0Zm4.575 1.09h.952l1.327-3.999h-.879l-.887 3.138H5.05l-.897-3.138h-.917l1.339 4Zm5.483-3.293c.076.152.123.316.14.492h-.776a.797.797 0 0 0-.096-.249.689.689 0 0 0-.17-.19.707.707 0 0 0-.237-.126.963.963 0 0 0-.3-.044c-.284 0-.506.1-.664.302-.157.2-.235.484-.235.85v.497c0 .235.033.44.097.616a.881.881 0 0 0 .305.413.87.87 0 0 0 .518.146.965.965 0 0 0 .457-.097.67.67 0 0 0 .273-.263c.06-.11.09-.23.09-.364v-.254h-.823v-.59h1.576v.798c0 .193-.032.377-.096.55a1.29 1.29 0 0 1-.293.457 1.37 1.37 0 0 1-.495.314c-.198.074-.43.111-.698.111a1.98 1.98 0 0 1-.752-.132 1.447 1.447 0 0 1-.534-.377 1.58 1.58 0 0 1-.319-.58 2.482 2.482 0 0 1-.105-.745v-.507c0-.36.066-.677.199-.949.134-.271.329-.482.583-.633.256-.152.564-.228.926-.228.238 0 .45.033.635.1.188.066.348.158.48.275.134.117.238.253.314.407Z" /></symbol><symbol stroke-linecap="round" stroke-linejoin="round" stroke-width="2" class="feather feather-file-text" viewBox="0 0 24 24" id="file"><path d="M14 2H6a2 2 0 0 0-2 2v16a2 2 0 0 0 2 2h12a2 2 0 0 0 2-2V8z" /><path d="M14 2v6h6M16 13H8M16 17H8M10 9H8" /></symbol><symbol viewBox="0 0 512 512" id="home"><path d="M245.5 17.4c-2.7.7-6.6 2-8.6 2.8-1.9.8-48.7 31.7-104 68.5C58.4 138.4 31.3 157 28.2 160.5c-5.2 5.9-9.9 15.2-11.2 22.4-1.5 7.8-1.4 268.3.1 275.3 3.4 16.3 14.7 29.3 31.4 35.9l6 2.4 198.8.3c219.6.3 205.4.6 218.1-6.1 7.7-4.1 15.2-11.6 19.3-19.3 6.4-11.9 6.3-10.4 6.3-101.9 0-53.3-.4-84.3-1-86.7-3.2-11.4-21.2-14.3-28.2-4.5l-2.3 3.2-.5 86-.5 86-2.2 3.5c-1.2 1.9-3.7 4.4-5.5 5.5-3.2 1.9-5.3 2-61.5 2.3l-58.2.3-.3-60.3c-.4-58.2-.4-60.5-2.5-66.5-5.2-15.5-17.3-27.2-32.8-32-5.4-1.6-10.1-1.8-44.5-1.8-34.5 0-39.2.2-45.3 1.9-16.9 4.6-30.6 19.2-34.3 36.5-1.6 7.9-2 73.4-.4 79 3.7 12.8 23.7 14.7 29.3 2.8 1.5-3.1 1.7-7.9 1.7-38.4 0-19.7.4-36.3 1-38.3.5-2 2.6-5.1 4.5-7l3.6-3.5 38.2-.3c36.7-.2 38.3-.2 41.5 1.8 1.8 1.1 4.1 3.4 5.2 5.2 1.9 3.2 2 5.2 2 62.1V465l-122.2-.2c-120.7-.3-122.3-.3-125.8-2.3-2.1-1.2-4.4-3.9-5.7-6.5l-2.3-4.4V320.5c0-126.8.1-131.1 2-135.2 1.8-4 7.7-8.1 100.9-70.2 64.7-43.2 100.2-66.2 102.4-66.6 2-.4 5-.4 6.8 0 1.9.4 46.7 29.7 101.9 66.5 75.3 50.3 99 66.6 100.5 69.1 1.8 3 2.1 5.7 2.5 25.4.5 20 .7 22.2 2.5 24.7 3.2 4.2 7.4 6.2 13 6.2 6 0 10.5-2.2 13.7-6.6 2.3-3.2 2.3-3.8 2.3-26.8 0-22.3-.1-23.8-2.4-30-2.8-7.8-7.9-15.8-12.8-20.1-2-1.7-48.7-33.1-103.7-69.8C306.3 39.6 275.9 19.9 272 18.6c-7.2-2.3-20.1-2.9-26.5-1.2z" /></symbol><symbol viewBox="0 0 90 90" id="logo"><circle cx="45" cy="60" r="30" style="fill:#0b2361" /><circle cx="45" cy="30" r="30" style="fill:#f1554c" /></symbol><symbol viewBox="0 0 32 32" id="print"><defs><style>#print .cls-1{fill:#101820}</style></defs><g id="print_Layer_55" data-name="Layer 55"><path d="M28 25h-3a1 1 0 0 1 0-2h3a1 1 0 0 0 1-1V10a1 1 0 0 0-1-1H4a1 1 0 0 0-1 1v12a1 1 0 0 0 1 1h3a1 1 0 0 1 0 2H4a3 3 0 0 1-3-3V10a3 3 0 0 1 3-3h24a3 3 0 0 1 3 3v12a3 3 0 0 1-3 3Z" class="cls-1" /><path d="M25 31H7a1 1 0 0 1-1-1V20a1 1 0 0 1 1-1h18a1 1 0 0 1 1 1v10a1 1 0 0 1-1 1ZM8 29h16v-8H8ZM25 9a1 1 0 0 1-1-1V3H8v5a1 1 0 0 1-2 0V2a1 1 0 0 1 1-1h18a1 1 0 0 1 1 1v6a1 1 0 0 1-1 1ZM24 11h2v2h-2zM18 11h4v2h-4z" class="cls-1" /></g></symbol><symbol viewBox="0 0 512 512" id="trash"><path d="M210.5 36.5c30.002-.167 60.002 0 90 .5 16.778 3.444 27.944 13.277 33.5 29.5a212.265 212.265 0 0 1 1.5 34c39.001-.167 78.001 0 117 .5 11.306 5.479 14.139 13.979 8.5 25.5-2.488 3.825-5.988 5.992-10.5 6.5-9.994.5-19.994.666-30 .5a39698.252 39698.252 0 0 1-19 289.5c-7.44 28.775-25.774 45.775-55 51-60.333.667-120.667.667-181 0-33.751-6.752-52.584-27.252-56.5-61.5a117744.58 117744.58 0 0 0-18.5-279c-10.339.166-20.672 0-31-.5-11.276-4.728-14.776-12.895-10.5-24.5 1.5-2.833 3.667-5 6.5-6.5a2440.555 2440.555 0 0 1 120-1.5c-.166-10.339 0-20.672.5-31 5.231-17.734 16.731-28.734 34.5-33Zm4 34c27.335-.167 54.669 0 82 .5 3.732 1.63 5.899 4.462 6.5 8.5.5 6.992.666 13.992.5 21h-96a120.13 120.13 0 0 1 1.5-25c1.406-2.244 3.239-3.91 5.5-5Zm-90 63c87.668.013 175.335.347 263 1a76556.845 76556.845 0 0 0-17.5 276c-1.755 16.358-10.589 26.524-26.5 30.5a7740.38 7740.38 0 0 1-176 0c-15.954-3.955-24.787-14.122-26.5-30.5a219184.031 219184.031 0 0 0-16.5-277Z" style="opacity:.973" /><path d="M187.5 185.5c9.255-1.124 15.755 2.542 19.5 11 .667 60.667.667 121.333 0 182-6.009 10.961-14.509 13.461-25.5 7.5-2.606-1.938-4.439-4.438-5.5-7.5a8277.112 8277.112 0 0 1 0-182c2.437-5.274 6.271-8.94 11.5-11ZM251.5 185.5c9.255-1.124 15.755 2.542 19.5 11 .667 60.667.667 121.333 0 182-6.009 10.961-14.509 13.461-25.5 7.5-2.606-1.938-4.439-4.438-5.5-7.5a8277.112 8277.112 0 0 1 0-182c2.437-5.274 6.271-8.94 11.5-11ZM315.5 185.5c9.255-1.124 15.755 2.542 19.5 11 .667 60.667.667 121.333 0 182-6.009 10.961-14.509 13.461-25.5 7.5-2.606-1.938-4.439-4.438-5.5-7.5a8277.112 8277.112 0 0 1 0-182c2.437-5.274 6.271-8.94 11.5-11Z" style="opacity:.991" /></symbol><symbol viewBox="0 0 512 512" id="upload"><path d="M355 112.7c-6.4 2.3-16.1 12.2-18.3 18.7-2.4 6.9-2.2 16.2.4 23.3 2 5.3 4.7 8.4 33.7 37.5l31.6 31.8-189.5.2-189.4.3-5 2.5c-6.4 3.1-12.4 9.1-15.5 15.5-3.4 6.9-3.5 19.8-.2 26.5 3.4 7.1 7.5 11.3 14.4 15.1l6.3 3.4 189.4.3 189.5.2-31.6 31.8c-29 29.1-31.7 32.2-33.7 37.5-2.6 7.1-2.8 16.4-.4 23.3 2.3 6.7 12 16.4 18.7 18.7 6.9 2.4 16.2 2.2 23.3-.4 5.5-2 9.1-5.4 66.9-63.3 49-49 61.6-62.1 63.4-66.1 3.4-7.2 3.4-19.9.1-27-1.9-4-15-17.6-63.5-66.1-57.8-57.9-61.4-61.3-66.9-63.3-6.9-2.5-17.1-2.7-23.7-.4z" /></symbol><symbol viewBox="0 0 512 512" id="user"><path d="M238 .6c-1.9.2-7.8.9-13 1.4-33 3.6-69.5 16-99 33.6C88.5 58 58 88.5 35.6 126c-17.5 29.2-29.1 63.2-33.8 99-1.6 12.3-1.6 49.7 0 62 8.2 62.3 35.6 115 82 158.1 25.6 23.9 57.5 42.5 92.2 53.9 27.4 9.1 49.1 12.4 80 12.4 22.8 0 32.9-.9 53-5 68.9-14.1 130.4-58.3 167.4-120.4 17.5-29.2 29.1-63.2 33.8-99 1.6-12.3 1.6-49.7 0-62-4.7-35.8-16.3-69.8-33.8-99C454 88.5 423.5 58 386 35.6 357.1 18.3 322.6 6.5 288 2 279.2.8 244.2-.1 238 .6zM276.5 31c58.3 5.4 114.6 34.7 151.7 79 48.7 58.1 65.2 133.7 45.2 206.7-7.7 28.1-21.3 55-39.8 78.5-3.4 4.3-6.3 7.8-6.6 7.8-.3 0-1.9-4.3-3.5-9.6-8.5-28.4-28.3-58.9-51.2-79-14.4-12.6-34.1-24.7-51.8-31.9l-4-1.6 3.5-2.6c6.3-4.7 21.6-20.8 25.3-26.6 14.2-22.1 20.2-46 17.7-70.4-3.7-36.6-25.1-68.1-57.5-85-67.4-35-148.8 9.1-156.5 85-2 19.7 1.8 40.4 10.6 57.9 7.1 14.1 18.9 28.7 30.5 37.5 2.7 2 4.9 4 4.9 4.3 0 .3-3.3 1.8-7.3 3.4-27 10.9-54 32.1-72.9 57.1-10.9 14.5-21.3 34.9-26.4 52-1.5 5.2-3.1 9.5-3.4 9.5-.8 0-12.2-14.8-17.9-23.3-6.3-9.4-17.4-31-21.9-42.5-7.8-19.8-12.7-42.7-14.4-67.5-5.2-71.7 27.1-144.5 83.9-189.8C160.6 43.3 218.8 25.7 276.5 31zm.5 86c25.7 7.3 45.8 27.4 53.6 53.5 3.5 11.9 3.7 28.9.6 40.6-9.3 34.7-39.5 57.9-75.2 57.9s-65.9-23.2-75.2-57.9c-3.1-11.7-2.9-28.7.6-40.6 8.8-29.6 31.6-49.7 63.6-55.9 5.8-1.1 24.7.3 32 2.4zm-.5 185.1c31 4 58.4 17.8 82.1 41.4 17.8 17.8 29 35.8 36.2 58.5 2.6 8.1 6.7 27.1 5.9 27.5-.1.1-3.1 2.4-6.7 5.2-30.8 24-67.9 39.4-109.5 45.4-11.6 1.7-45.4 1.7-57 0-41.6-6-78.7-21.4-109.5-45.4-3.6-2.8-6.6-5.1-6.7-5.2-.2-.1.4-3.9 1.2-8.4 9.1-51.7 46.1-95 96.1-112.4 22.1-7.7 43.1-9.8 67.9-6.6z" /></symbol><symbol viewBox="0 0 512 512" id="wrench"><path d="M38.5 1.9c-1.6 1-10.8 9.7-20.3 19.3C2.5 37.2 1 39 1 42.3 1 45 5 52.7 18.6 76.6c9.7 17 18.1 31.5 18.8 32.2.7.7 9 3.2 18.6 5.7l17.4 4.4 54.6 54.6 54.5 54.5 6-6 6-6-56-56-56-56-6.5-2c-3.6-1-11.2-3.1-17-4.5l-10.5-2.7-14-24.6c-7.7-13.5-14.1-25-14.3-25.6-.1-.6 5.3-6.6 12-13.3l12.3-12.2 25.6 14.6 25.6 14.7 3.8 16 3.9 16.1 56.5 56.8 56.6 56.7 6-6 6-6-54.7-54.8-54.7-54.7-4.2-16.7c-2.3-9.2-4.6-17.4-5.3-18.2C107.9 35.3 45.8 0 43.5 0c-1.1 0-3.3.8-5 1.9z" /><path d="M395.6 1c-52.9 8.4-89.9 53.3-87.3 105.9.3 6.4.8 12.5 1.2 13.6.5 1.6-16.6 19.1-92.8 95.3l-93.4 93.4-10.4-1.1c-43.5-4.3-84.1 19-102.9 59.1-7 15-8.5 22.7-8.4 43.3 0 16.6.3 18.7 2.8 27 11.5 38 40.5 64.7 78.8 72.5 52.8 10.8 105.1-22.2 118.9-75.2 2.5-9.5 3.6-30 2.1-38.8l-.9-5.5 22.6-22.7 22.5-22.8 11.2 11c13.2 13.1 14.2 13.4 22.3 6.5 6.5-5.5 11.2-6.1 15.5-1.9 4.2 4.2 3.6 8.8-1.9 15.3-8 9.4-12.2 4 52.3 68.1 51 50.9 57.4 56.9 63.8 60.3 19.9 10.4 45.1 10.4 64.7 0 10.4-5.5 23.1-18.3 28.4-28.8 5.7-11.2 7.3-18 7.3-32s-1.6-20.8-7.2-32c-3.9-7.6-6.6-10.5-60.4-64.5-53.4-53.5-56.5-56.4-59.8-56.4-2.8 0-4.5.8-7.4 3.7-5.2 5.1-9.1 6.3-13.5 4.2-3.6-1.7-5.7-5-5.7-9 0-1.5 1.8-4.5 4.5-7.5 3.6-4.1 4.5-5.8 4.5-8.8 0-3.3-1-4.6-10.7-14.4L345.5 248l22.6-22.6 22.5-22.5 9 1.2c17.8 2.3 38.4-1.3 55.9-10 26.7-13.2 44.7-35 53.7-65.1 4-13.3 3.5-44.8-.9-53.3-1.6-3.3-5.7-5.1-9.3-4.2-1.5.4-13.8 11.9-30 28l-27.5 27.3-20.9-7.2-21-7.1-6.9-20.9-6.9-20.8 27.6-27.7c25.9-26 27.6-27.9 27.6-31.3 0-5.2-2.6-7.7-9.5-9.4C424 .6 403.4-.2 395.6 1zm-3.9 39.8C369.8 62.7 368 64.8 368 68c0 5.4 16.8 54.9 19.5 57.4 1.3 1.2 13.5 5.8 29.2 11 21 7 27.5 8.8 29.8 8.2 2.1-.5 10.2-7.9 25.6-23.3 12.5-12.4 22.9-22.1 23.2-21.6.9 1.5-.9 18.2-2.8 25.2-7.5 29.1-31.1 52.3-61 60.2-9.7 2.5-25.4 3-37.1 1-7.1-1.1-8.5-1.1-11 .2-4.1 2.2-196.1 194.7-197.2 197.7-.7 1.7-.5 4.9.4 9.5.7 3.9 1.3 11.4 1.4 16.7.1 41.7-29 76.7-70.5 84.5-10.5 2-28.3 1.3-38-1.6-28.1-8.3-49.2-28.5-58.6-56.1-2.9-8.5-3.3-11-3.7-23.5-.3-11.7-.1-15.4 1.7-22.8 9.3-38.9 43.4-66 83.1-65.9 5.8.1 12.9.6 15.9 1.1 11.5 2.3 1.2 11.4 109.9-97.2 54.1-54 98.8-99.3 99.3-100.6.6-1.5.4-5.1-.7-11-1.9-10.2-1.4-26.1 1.2-36.1 9.5-36.8 43-63.2 80.9-63.9l7-.1-23.8 23.8zm-47.4 236.9c-1.6 2.7-2.7 6.5-3 10.2-1.9 21.1 19.8 35.6 38.7 25.8l4.7-2.5 49.4 49.4 49.4 49.4-36.5 36.5-36.5 36.5-49.4-49.4-49.4-49.4 2.7-5.3c5.1-10.4 2.6-24.5-5.7-31.5-8.6-7.3-20.5-8.8-29.9-4l-5.2 2.7-6.9-6.9-6.9-6.9 36.9-36.1 36.8-36.2 6.7 6.7 6.7 6.6-2.6 4.4zm149.8 153.5c2.9 11.7.6 27-5.7 38.1-3.7 6.7-13 15.7-20 19.4-11.5 6.1-26.7 7.8-38.8 4.3l-3.9-1.2 32.9-32.9c18.1-18.1 33.2-32.9 33.5-32.9.4 0 1.3 2.4 2 5.2z" /><path d="m250.5 250-94 94 6 6 6 6 94-94 94-94-6-6-6-6-94 94zM72.2 360.7c-2.7 2.4-28.2 44.9-28.8 48.2-.4 2.1 2.4 7.5 13.6 26.2 9.6 16.1 15 24 16.6 24.8 1.7.7 11.8 1.1 29.9 1.1H131l2.9-2.8c4.7-4.4 28.5-45.1 28.5-48.7-.1-3.3-24.8-45.6-28.6-48.8-1.8-1.5-4.8-1.7-30.8-1.7s-29 .2-30.8 1.7zm61.8 32.2 10.2 17-10.2 17-10.3 17.1H82.3l-10.2-16.9c-5.5-9.3-10.1-17.2-10.1-17.5 0-.4 14.8-25.4 18.6-31.4C82 376 82.4 376 103 376h20.9l10.1 16.9zM350.5 350l-6 6 42.8 42.8 42.7 42.7 6-6 6-6-42.8-42.8-42.7-42.7-6 6z" /></symbol></defs></svg>