<?xml version="1.0" standalone="no"?>
<!DOCTYPE svg PUBLIC "-//W3C//DTD SVG 20010904//EN" "http://www.w3.org/TR/2001/REC-SVG-20010904/DTD/svg10.dtd">
<svg version="1.0" xmlns="http://www.w3.org/2000/svg" width="512.000000pt" height="512.000000pt"
  viewBox="0 0 512.000000 512.000000" preserveAspectRatio="xMidYMid meet">

  <g transform="translate(0.000000,512.000000) scale(0.100000,-0.100000)" fill="#000000" stroke="none">
    <path d="M2455 4946 c-27 -7 -66 -20 -86 -28 -19 -8 -487 -317 -1040 -685
-745 -497 -1016 -683 -1047 -718 -52 -59 -99 -152 -112 -224 -15 -78 -14
-2683 1 -2753 34 -163 147 -293 314 -359 l60 -24 1988 -3 c2196 -3 2054 -6
2181 61 77 41 152 116 193 193 64 119 63 104 63 1019 0 533 -4 843 -10 867
-32 114 -212 143 -282 45 l-23 -32 -5 -860 -5 -860 -22 -35 c-12 -19 -37 -44
-55 -55 -32 -19 -53 -20 -615 -23 l-582 -3 -3 603 c-4 582 -4 605 -25 665 -52
155 -173 272 -328 320 -54 16 -101 18 -445 18 -345 0 -392 -2 -453 -19 -169
-46 -306 -192 -343 -365 -16 -79 -20 -734 -4 -790 37 -128 237 -147 293 -28
15 31 17 79 17 384 0 197 4 363 10 383 5 20 26 51 45 70 l36 35 382 3 c367 2
383 2 415 -18 18 -11 41 -34 52 -52 19 -32 20 -52 20 -621 l0 -587 -1222 2
c-1207 3 -1223 3 -1258 23 -21 12 -44 39 -57 65 l-23 44 0 1311 c0 1268 1
1311 20 1352 18 40 77 81 1009 702 647 432 1002 662 1024 666 20 4 50 4 68 0
19 -4 467 -297 1019 -665 753 -503 990 -666 1005 -691 18 -30 21 -57 25 -254
5 -200 7 -222 25 -247 32 -42 74 -62 130 -62 60 0 105 22 137 66 23 32 23 38
23 268 0 223 -1 238 -24 300 -28 78 -79 158 -128 201 -20 17 -487 331 -1037
698 -713 475 -1017 672 -1056 685 -72 23 -201 29 -265 12z" />
  </g>
</svg>