<?xml version="1.0" encoding="UTF-8"?>
<!DOCTYPE svg PUBLIC "-//W3C//DTD SVG 1.1//EN" "http://www.w3.org/Graphics/SVG/1.1/DTD/svg11.dtd">
<svg xmlns="http://www.w3.org/2000/svg" version="1.1" width="512px" height="512px"
  style="shape-rendering:geometricPrecision; text-rendering:geometricPrecision; image-rendering:optimizeQuality; fill-rule:evenodd; clip-rule:evenodd"
  xmlns:xlink="http://www.w3.org/1999/xlink">
  <g>
    <path style="opacity:0.973" fill="#000000"
      d="M 210.5,36.5 C 240.502,36.3334 270.502,36.5 300.5,37C 317.278,40.4435 328.444,50.2768 334,66.5C 335.409,77.7702 335.909,89.1035 335.5,100.5C 374.501,100.333 413.501,100.5 452.5,101C 463.806,106.479 466.639,114.979 461,126.5C 458.512,130.325 455.012,132.492 450.5,133C 440.506,133.5 430.506,133.666 420.5,133.5C 414.519,230.025 408.186,326.525 401.5,423C 394.06,451.775 375.726,468.775 346.5,474C 286.167,474.667 225.833,474.667 165.5,474C 131.749,467.248 112.916,446.748 109,412.5C 102.943,319.484 96.7767,226.484 90.5,133.5C 80.1613,133.666 69.828,133.5 59.5,133C 48.2236,128.272 44.7236,120.105 49,108.5C 50.5,105.667 52.6667,103.5 55.5,102C 95.4391,100.517 135.439,100.017 175.5,100.5C 175.334,90.1613 175.5,79.828 176,69.5C 181.231,51.7655 192.731,40.7655 210.5,36.5 Z M 214.5,70.5 C 241.835,70.3334 269.169,70.5 296.5,71C 300.232,72.6291 302.399,75.4624 303,79.5C 303.5,86.4921 303.666,93.4921 303.5,100.5C 271.5,100.5 239.5,100.5 207.5,100.5C 207.13,92.097 207.63,83.7637 209,75.5C 210.406,73.2563 212.239,71.5897 214.5,70.5 Z M 124.5,133.5 C 212.168,133.513 299.835,133.847 387.5,134.5C 381.502,226.471 375.668,318.471 370,410.5C 368.245,426.858 359.411,437.024 343.5,441C 284.833,441.667 226.167,441.667 167.5,441C 151.546,437.045 142.713,426.878 141,410.5C 135.558,318.156 130.058,225.822 124.5,133.5 Z" />
  </g>
  <g>
    <path style="opacity:0.991" fill="#000000"
      d="M 187.5,185.5 C 196.755,184.376 203.255,188.042 207,196.5C 207.667,257.167 207.667,317.833 207,378.5C 200.991,389.461 192.491,391.961 181.5,386C 178.894,384.062 177.061,381.562 176,378.5C 175.333,317.833 175.333,257.167 176,196.5C 178.437,191.226 182.271,187.56 187.5,185.5 Z" />
  </g>
  <g>
    <path style="opacity:0.991" fill="#000000"
      d="M 251.5,185.5 C 260.755,184.376 267.255,188.042 271,196.5C 271.667,257.167 271.667,317.833 271,378.5C 264.991,389.461 256.491,391.961 245.5,386C 242.894,384.062 241.061,381.562 240,378.5C 239.333,317.833 239.333,257.167 240,196.5C 242.437,191.226 246.271,187.56 251.5,185.5 Z" />
  </g>
  <g>
    <path style="opacity:0.991" fill="#000000"
      d="M 315.5,185.5 C 324.755,184.376 331.255,188.042 335,196.5C 335.667,257.167 335.667,317.833 335,378.5C 328.991,389.461 320.491,391.961 309.5,386C 306.894,384.062 305.061,381.562 304,378.5C 303.333,317.833 303.333,257.167 304,196.5C 306.437,191.226 310.271,187.56 315.5,185.5 Z" />
  </g>
</svg>